<?xml version="1.0" encoding="UTF-8"?>
<svg id="Layer_1" xmlns="http://www.w3.org/2000/svg" version="1.1" viewBox="0 0 962.6 459.7">
  <!-- Generator: Adobe Illustrator 29.8.2, SVG Export Plug-In . SVG Version: 2.1.1 Build 3)  -->
  <defs>
    <style>
      .st0 {
        fill: none;
        stroke: #fff;
        stroke-opacity: 0;
      }

      .st1 {
        fill: #eda1ca;
      }

      .st2 {
        fill: #80bea7;
      }

      .st3 {
        fill: #fff;
        fill-opacity: .1;
      }
    </style>
  </defs>
  <path class="st3" d="M-54.9-210.1v1h1121v-2H-54.9v1ZM1068.1-208.1h-1v847h2V-208.1h-1ZM1066.1,640.9v-1H-54.9v2h1121v-1ZM-56.9,638.9h1V-208.1h-2v847h1ZM-54.9,640.9v-1c-.6,0-1-.4-1-1h-2c0,1.7,1.3,3,3,3v-1ZM1068.1,638.9h-1c0,.6-.4,1-1,1v2c1.7,0,3-1.3,3-3h-1ZM1066.1-210.1v1c.6,0,1,.4,1,1h2c0-1.7-1.3-3-3-3v1ZM-54.9-210.1v-1c-1.7,0-3,1.3-3,3h2c0-.6.4-1,1-1v-1Z"/>
  <path class="st2" d="M956.6,258c-15.4,47.2-68.1,150.1-155.3,183.3-81.7,27.9-283.8,19.9-413-26.4-161.4-57.9-197.3-250.4-192.2-273.3,5.1-22.9,24.9-149.8,425.8-137.3,320.7,10,356.8,173.3,334.7,253.7Z"/>
  <path class="st1" d="M14.7,320.9c-12.3-32.4-27.9-108.3,8.7-152.8,35.8-39.8,67.3-60.4,164.9-69.7,122.1-11.6,141.2-6.4,203,44.5,34.5,28.4,180.8,126.8-62.6,233.3-194.7,85.2-290.4-1.3-313.9-55.3Z"/>
  <rect class="st0" x="-56.4" y="-245.6" width="101.2" height="29" rx="-93.8" ry="-93.8"/>
</svg>