<?xml version="1.0" encoding="UTF-8"?>
<svg id="Layer_2" data-name="Layer 2" xmlns="http://www.w3.org/2000/svg" xmlns:xlink="http://www.w3.org/1999/xlink" viewBox="0 0 42 42">
  <defs>
    <style>
      .cls-1 {
        fill: url(#linear-gradient);
      }
    </style>
    <linearGradient id="linear-gradient" x1="21" y1="-86" x2="21" y2="-128" gradientTransform="translate(0 -86) scale(1 -1)" gradientUnits="userSpaceOnUse">
      <stop offset="0" stop-color="#80bea7"/>
      <stop offset="1" stop-color="#1f615e"/>
    </linearGradient>
  </defs>
  <g id="Layer_1-2" data-name="Layer 1">
    <path class="cls-1" d="M26.8,0c5.32,0,7.98,0,10.01,1.04,1.79.91,3.24,2.36,4.15,4.15,1.04,2.03,1.04,4.69,1.04,10.01v11.6c0,5.32,0,7.98-1.04,10.01-.91,1.79-2.36,3.24-4.15,4.15-2.03,1.04-4.69,1.04-10.01,1.04h-11.6c-5.32,0-7.98,0-10.01-1.04-1.79-.91-3.24-2.36-4.15-4.15-1.04-2.03-1.04-4.69-1.04-10.01v-11.6c0-5.32,0-7.98,1.04-10.01C1.95,3.4,3.4,1.95,5.19,1.04,7.22,0,9.88,0,15.2,0h11.6ZM14.76,11.95c-.09.01-.17.1-.16.2,0,.39-.04.79-.11,1.17-.06.22-.11.42-.17.59l-5.64,16.64c-.06.21.01.32.2.32h3.3c.16,0,.3-.1.34-.26l1.32-4.22h6.51l1.44,4.28c.03.13.15.22.28.2h3.66c.17,0,.23-.1.17-.29l-6.4-18.49c-.02-.1-.09-.14-.22-.14h-4.52ZM27.99,16.51c-.15,0-.23.09-.23.26v13.81c0,.19.08.29.25.29h3.44c.15,0,.23-.1.23-.29v-13.81c0-.17-.08-.26-.23-.26h-3.47ZM17.08,15.27c.67,2.52,1.49,4.98,2.23,7.48h-4.45c.72-2.45,1.5-4.96,2.23-7.48ZM29.76,10.5c-.29,0-.58.04-.84.15-.27.11-.51.27-.72.47-.21.21-.38.46-.48.73-.11.28-.16.57-.15.87-.01.3.04.6.14.88.1.28.26.54.46.76.2.21.44.38.71.49.27.11.55.16.84.15.3.01.6-.03.88-.14.28-.11.53-.28.74-.49.2-.22.36-.48.47-.76s.15-.58.14-.89c.01-.29-.03-.59-.13-.86-.1-.27-.25-.53-.45-.74-.39-.41-.92-.62-1.59-.62Z"/>
  </g>
</svg>