<?xml version="1.0" encoding="UTF-8"?>
<svg id="Layer_2" data-name="Layer 2" xmlns="http://www.w3.org/2000/svg" xmlns:xlink="http://www.w3.org/1999/xlink" viewBox="0 0 42 42">
  <defs>
    <style>
      .cls-1 {
        fill: url(#linear-gradient);
      }
    </style>
    <linearGradient id="linear-gradient" x1="21" y1="-86" x2="21" y2="-128" gradientTransform="translate(0 -86) scale(1 -1)" gradientUnits="userSpaceOnUse">
      <stop offset="0" stop-color="#80bea7"/>
      <stop offset="1" stop-color="#1f615e"/>
    </linearGradient>
  </defs>
  <g id="Layer_1-2" data-name="Layer 1">
    <path class="cls-1" d="M26.8,0c5.32,0,7.98,0,10.01,1.04,1.79.91,3.24,2.36,4.15,4.15,1.04,2.03,1.04,4.69,1.04,10.01v11.6c0,5.32,0,7.98-1.04,10.01-.91,1.79-2.36,3.24-4.15,4.15-2.03,1.04-4.69,1.04-10.01,1.04h-11.6c-5.32,0-7.98,0-10.01-1.04-1.79-.91-3.24-2.36-4.15-4.15-1.04-2.03-1.04-4.69-1.04-10.01v-11.6c0-5.32,0-7.98,1.04-10.01C1.95,3.4,3.4,1.95,5.19,1.04,7.22,0,9.88,0,15.2,0h11.6ZM29.91,10.5h-3.55c-.11,0-.17.07-.17.2v5.69c-1.81-.17-3.71.07-5.32.98-2.34,1.28-3.77,3.86-3.75,6.56,0,2.71,1.09,5.34,3.59,6.53,1.18.55,2.46.83,3.76.81.91,0,1.81-.09,2.7-.26.98-.18,1.93-.48,2.85-.87.11-.05.18-.17.17-.29-.04-.7-.11-1.4-.11-2.11V10.64c0-.08-.09-.15-.17-.14ZM14.16,12.06h-3.41c-.17,0-.25.08-.25.23v18.41c0,.19.07.29.23.29h3.41c.17,0,.25-.1.25-.29V12.29c.02-.13-.1-.25-.23-.23ZM21.12,23.77c0-2.71,2.51-4.67,5.07-3.96v7.89c-2.6.78-5.13-1.09-5.07-3.93Z"/>
  </g>
</svg>