<?xml version="1.0" encoding="UTF-8"?>
<svg id="Layer_1" xmlns="http://www.w3.org/2000/svg" version="1.1" viewBox="0 0 957 1259.7">
  <!-- Generator: Adobe Illustrator 30.0.0, SVG Export Plug-In . SVG Version: 2.1.1 Build 123)  -->
  <defs>
    <style>
      .st0 {
        fill: #eda1ca;
      }

      .st1 {
        fill: #80bea7;
      }
    </style>
  </defs>
  <path class="st1" d="M1060,44.4c44.6,59.9,127.1,208.3,100.5,322.4-28.8,103.7-145.1,250-298.3,327.1-191.6,96.4-494.9-18.4-518.4-45.2-23.5-26.8-159.6-167.4,159.8-532.8,255.4-292.3,477.4-169.4,556.5-71.4Z"/>
  <path class="st0" d="M540.2,1067.9c-38.6-15.7-120.9-62.6-141.2-124.7-16.3-57.8-13.6-119.8,37.2-200.9,63.5-101.4,184.3-162.3,270.8-169.8,48.3-4.2,124.5,33.7,78,300.4-37.2,213.3-178.7,218.9-244.7,195.1Z"/>
</svg>