<?xml version="1.0" encoding="UTF-8"?>
<svg id="Layer_1" xmlns="http://www.w3.org/2000/svg" version="1.1" viewBox="0 0 299 389.9">
  <!-- Generator: Adobe Illustrator 30.0.0, SVG Export Plug-In . SVG Version: 2.1.1 Build 123)  -->
  <defs>
    <style>
      .st0 {
        fill: #eda1ca;
      }

      .st1 {
        fill: #80bea7;
      }
    </style>
  </defs>
  <path class="st0" d="M559.1-628.2c65.7,38.9,202.1,146.3,222.1,264.3,13.8,109.2-38.1,293.1-152.2,426.4C486.4,229,155,240.7,122.3,224.7c-32.7-16-216.6-94.9-59.8-565.7,125.4-376.6,383.4-348.4,496.6-287.2Z"/>
  <path class="st1" d="M225.8,165.7c11.9-5.6,40.7-13.6,59.9-1.3,17.4,12.1,39.5,44.8,48.2,80.9,11,45.2-18.7,100.6-24.2,103.9-5.5,3.2-34.5,22.8-88.8-64.8-43.4-70-14.9-108.3,4.9-118.7Z"/>
</svg>