<?xml version="1.0" encoding="UTF-8"?>
<svg id="Layer_2" data-name="Layer 2" xmlns="http://www.w3.org/2000/svg" xmlns:xlink="http://www.w3.org/1999/xlink" viewBox="0 0 42 42">
  <defs>
    <style>
      .cls-1 {
        fill: url(#linear-gradient);
      }
    </style>
    <linearGradient id="linear-gradient" x1="21" y1="-86" x2="21" y2="-128" gradientTransform="translate(0 -86) scale(1 -1)" gradientUnits="userSpaceOnUse">
      <stop offset="0" stop-color="#80bea7"/>
      <stop offset="1" stop-color="#1f615e"/>
    </linearGradient>
  </defs>
  <g id="Layer_1-2" data-name="Layer 1">
    <path class="cls-1" d="M26.8,0c5.32,0,7.98,0,10.01,1.04,1.79.91,3.24,2.36,4.15,4.15,1.04,2.03,1.04,4.69,1.04,10.01v11.6c0,5.32,0,7.98-1.04,10.01-.91,1.79-2.36,3.24-4.15,4.15-2.03,1.04-4.69,1.04-10.01,1.04h-11.6c-5.32,0-7.98,0-10.01-1.04-1.79-.91-3.24-2.36-4.15-4.15-1.04-2.03-1.04-4.69-1.04-10.01v-11.6c0-5.32,0-7.98,1.04-10.01C1.95,3.4,3.4,1.95,5.19,1.04,7.22,0,9.88,0,15.2,0h11.6ZM30.84,16.32c-4.14,0-6.8,3.46-6.79,7.57,0,4.33,2.9,7.31,7.13,7.31,1.42.02,2.92-.16,4.23-.75.12-.08.18-.2.17-.35v-2.75c0-.17-.05-.22-.14-.14-1.05.42-2.25.6-3.38.62-2,.04-3.8-.98-4.06-3.13,2.81,0,5.62-.04,8.42-.04.13,0,.24-.1.25-.23.08-.63.11-1.27.11-1.91-.01-3.49-2.44-6.3-5.95-6.21ZM12.13,12c-.11-.02-.21.09-.2.2,0,.39-.04.79-.11,1.17-.06.22-.11.39-.17.56l-5.63,16.58c-.06.21,0,.32.2.32h3.3c.16,0,.3-.1.34-.26l1.32-4.23h6.51l1.44,4.29c.03.13.15.22.28.2h3.66c.17,0,.23-.1.17-.29l-6.4-18.4c-.02-.1-.09-.14-.23-.14h-4.48ZM14.42,15.3c.67,2.52,1.49,4.99,2.23,7.48h-4.45c.77-2.45,1.47-4.87,2.23-7.48ZM30.7,19.44c1.27-.05,2.36,1.02,2.39,2.31,0,.24-.17.29-.41.31-1.56.07-3.13.01-4.69.01.19-1.44,1.17-2.73,2.71-2.64Z"/>
  </g>
</svg>