<?xml version="1.0" encoding="UTF-8"?>
<svg id="Layer_2" data-name="Layer 2" xmlns="http://www.w3.org/2000/svg" xmlns:xlink="http://www.w3.org/1999/xlink" viewBox="0 0 42 42">
  <defs>
    <style>
      .cls-1 {
        fill: url(#linear-gradient);
      }
    </style>
    <linearGradient id="linear-gradient" x1="21" y1="-86" x2="21" y2="-128" gradientTransform="translate(0 -86) scale(1 -1)" gradientUnits="userSpaceOnUse">
      <stop offset="0" stop-color="#80bea7"/>
      <stop offset="1" stop-color="#1f615e"/>
    </linearGradient>
  </defs>
  <g id="Layer_1-2" data-name="Layer 1">
    <path class="cls-1" d="M26.8,0c5.32,0,7.98,0,10.01,1.04,1.79.91,3.24,2.36,4.15,4.15,1.03,2.03,1.03,4.69,1.03,10.01v11.6c0,5.32,0,7.98-1.03,10.01-.91,1.79-2.37,3.24-4.15,4.15-2.03,1.04-4.69,1.04-10.01,1.04h-11.6c-5.32,0-7.98,0-10.01-1.04-1.79-.91-3.24-2.36-4.15-4.15-1.03-2.03-1.03-4.69-1.03-10.01v-11.6c0-5.32,0-7.98,1.03-10.01C1.95,3.4,3.4,1.95,5.19,1.04,7.22,0,9.88,0,15.2,0h11.6ZM22.19,7.4c-.7-.54-1.87-.53-2.63,0-.78.54-.86,1.44-.17,2h0s4.43,3.61,4.43,3.61h-13.5s-.02.01-.02.01c-1.12,0-2.19.73-2.4,1.66-.22.94.54,1.73,1.7,1.73h0s6.84-.01,6.84-.01l-12.21,9.37s-.03.02-.05.04c-1.15.88-1.53,2.35-.8,3.28.74.94,2.3.94,3.47,0l6.66-5.45s-.1.74-.09,1.18c0,.44.15,1.31.36,1.98.45,1.43,1.2,2.75,2.26,3.91,1.08,1.2,2.41,2.15,3.95,2.83,1.62.71,3.37,1.08,5.18,1.08,1.82,0,3.57-.37,5.18-1.1,1.54-.69,2.87-1.65,3.95-2.85,1.05-1.17,1.81-2.49,2.26-3.91.22-.72.37-1.45.42-2.18.05-.72.03-1.45-.07-2.17-.2-1.41-.69-2.73-1.44-3.94-.69-1.11-1.57-2.08-2.62-2.89h0s-10.62-8.16-10.62-8.16c-.01,0-.02-.01-.03-.02ZM25.16,16.4c1.78,0,3.48.58,4.81,1.67.68.55,1.23,1.21,1.63,1.94.41.74.66,1.55.74,2.42.08.88-.04,1.75-.34,2.57-.3.84-.8,1.62-1.47,2.3-1.37,1.4-3.3,2.19-5.38,2.2-2.08,0-4.01-.78-5.38-2.18-.67-.68-1.16-1.46-1.47-2.3-.3-.82-.41-1.69-.34-2.57.07-.86.33-1.68.74-2.42.4-.73.95-1.39,1.63-1.94,1.33-1.09,3.03-1.68,4.81-1.68ZM25.31,18.57c-1.21,0-2.31.43-3.13,1.12-.84.71-1.39,1.71-1.46,2.84-.06,1.16.4,2.25,1.22,3.05.84.82,2.03,1.33,3.37,1.33s2.53-.51,3.36-1.33c.82-.8,1.29-1.89,1.23-3.05-.06-1.13-.62-2.13-1.46-2.84-.82-.7-1.93-1.12-3.13-1.12Z"/>
  </g>
</svg>