<?xml version="1.0" encoding="UTF-8"?>
<svg id="Layer_2" data-name="Layer 2" xmlns="http://www.w3.org/2000/svg" xmlns:xlink="http://www.w3.org/1999/xlink" viewBox="0 0 42 42">
  <defs>
    <style>
      .cls-1 {
        fill: url(#linear-gradient);
      }
    </style>
    <linearGradient id="linear-gradient" x1="21" y1="-86" x2="21" y2="-128" gradientTransform="translate(0 -86) scale(1 -1)" gradientUnits="userSpaceOnUse">
      <stop offset="0" stop-color="#80bea7"/>
      <stop offset="1" stop-color="#1f615e"/>
    </linearGradient>
  </defs>
  <g id="Layer_1-2" data-name="Layer 1">
    <path class="cls-1" d="M26.8,0c5.32,0,7.98,0,10.01,1.04,1.79.91,3.24,2.36,4.15,4.15,1.03,2.03,1.03,4.69,1.03,10.01v11.6c0,5.32,0,7.98-1.03,10.01-.91,1.79-2.37,3.24-4.15,4.15-2.03,1.04-4.69,1.04-10.01,1.04h-11.6c-5.32,0-7.98,0-10.01-1.04-1.79-.91-3.24-2.36-4.15-4.15-1.03-2.03-1.03-4.69-1.03-10.01v-11.6c0-5.32,0-7.98,1.03-10.01C1.95,3.4,3.4,1.95,5.19,1.04,7.22,0,9.88,0,15.2,0h11.6ZM23.95,5c-.3,0-.63,0-.93.02-.31.02-.63.03-.93.09-.3.03-.63.08-.93.14s-.61.12-.91.2c-.3.09-.61.17-.91.26s-.59.2-.9.32l-8.9,3.65c-.24.1-.49.22-.71.32-.24.12-.44.24-.66.39-.22.14-.42.29-.61.44-.19.15-.37.31-.54.49-.25.26-.49.51-.71.8-.22.29-.39.58-.56.89-.17.31-.3.63-.41.95-.1.32-.17.67-.24.99-.03.17-.03.34-.05.51-.03.17-.03.36-.03.53s.02.36.03.53c.02.17.03.36.07.53.03.17.09.34.12.51.05.17.1.36.17.53.07.17.14.36.22.51.09.17.17.34.25.51.12.24.27.44.42.65.15.2.3.41.49.61.17.19.36.38.54.56.19.17.39.34.59.51.3.24.64.46.98.65.34.19.71.37,1.07.51.37.15.75.27,1.14.38.39.1.78.17,1.19.24.2.03.41.03.61.05.2.02.41.02.61.02s.41-.02.61-.03.41-.04.61-.07c.2-.03.41-.07.61-.1s.41-.1.59-.15c.2-.05.39-.12.58-.19.19-.07.37-.15.58-.24l7.86-3.48c.36-.15.64-.37.86-.61.22-.24.39-.53.49-.85.1-.31.12-.63.09-.96-.03-.32-.17-.65-.36-.97-.19-.31-.44-.58-.75-.79-.31-.22-.63-.37-.98-.49-.36-.1-.71-.15-1.08-.14-.37.02-.73.1-1.09.24l-7.78,3.38c-.08.03-.15.05-.24.08-.08.03-.15.03-.24.07-.09.02-.15.03-.24.03-.09.02-.15.02-.24.02-.12,0-.24,0-.36-.02-.12-.02-.24-.03-.34-.05-.1-.03-.24-.05-.34-.1-.1-.03-.22-.09-.31-.14-.05-.03-.1-.05-.15-.08-.05-.03-.1-.05-.15-.1-.03-.03-.1-.07-.14-.1-.03-.03-.08-.07-.12-.1-.03-.03-.08-.08-.12-.12s-.09-.09-.1-.12c-.03-.03-.07-.1-.1-.14-.03-.03-.07-.1-.1-.15-.03-.07-.07-.14-.1-.21-.03-.07-.05-.14-.08-.2-.03-.07-.03-.14-.05-.21-.02-.07-.03-.14-.04-.2-.02-.1-.02-.21,0-.31.02-.1.03-.2.05-.31.03-.1.05-.19.1-.29.05-.1.1-.17.15-.27.03-.03.05-.09.1-.12.03-.03.07-.08.1-.12s.07-.08.1-.1c.03-.03.08-.07.12-.1.03-.03.09-.07.12-.1.03-.03.1-.07.14-.1.05-.03.1-.05.15-.09.05-.03.1-.05.17-.07l8.95-3.77c.24-.1.46-.17.7-.24.24-.07.46-.14.71-.19.18-.04.36-.08.53-.1l.36-.04c.18-.02.36-.02.53-.03.36-.02.71,0,1.07.03.36.04.71.09,1.07.17.36.09.71.17,1.05.29.34.12.66.26.98.41.17.08.31.17.47.24.15.1.3.17.46.29.15.1.3.2.44.31.14.1.29.22.41.34.13.12.27.24.39.38.12.12.24.26.37.39.12.14.24.27.34.43.1.15.22.31.31.44.13.2.24.41.36.63.1.2.2.43.27.63.08.22.15.43.2.65.05.22.1.43.14.65.05.32.07.65.07.97s-.03.65-.1.96c-.05.31-.14.63-.24.92-.1.31-.24.6-.41.87-.09.14-.17.29-.25.41-.1.14-.19.27-.31.39-.1.12-.22.26-.32.38-.1.12-.24.24-.37.36-.12.1-.25.24-.39.32-.14.1-.29.2-.44.31-.15.1-.3.19-.48.27-.17.08-.32.17-.51.24l-12.7,5.76,4.93,7.48c.24.34.51.63.85.85.32.22.69.37,1.07.48.37.1.78.12,1.17.09s.78-.17,1.12-.36c.34-.19.63-.44.85-.72.22-.27.37-.58.46-.92.08-.32.1-.68.05-1.02-.05-.34-.17-.7-.37-1.02-.02-.02-.02-.03-.03-.03-.02-.02-.02-.03-.03-.03,0-.02-.02-.03-.03-.03-.02-.02-.02-.03-.03-.03l-1.58-2.35,7.25-3.24c.41-.19.78-.39,1.17-.61.37-.22.71-.46,1.05-.72.34-.26.64-.51.95-.78.3-.27.58-.56.83-.85.37-.44.73-.92,1.03-1.4.31-.5.56-.99.76-1.52.2-.53.37-1.06.51-1.6.12-.55.19-1.09.24-1.65.02-.27.02-.56.02-.85-.02-.29-.03-.56-.05-.85-.03-.29-.08-.56-.12-.85-.05-.29-.12-.56-.2-.85-.09-.27-.17-.56-.27-.84-.1-.27-.22-.56-.34-.83-.12-.27-.25-.55-.41-.82-.2-.24-.37-.51-.54-.77-.24-.36-.47-.68-.73-1.01-.25-.32-.52-.65-.83-.92-.29-.31-.58-.58-.92-.85-.3-.27-.64-.51-.98-.77-.51-.36-1.03-.68-1.58-.99-.54-.31-1.12-.56-1.68-.78-.58-.24-1.17-.43-1.76-.58-.59-.15-1.2-.27-1.81-.36-.3-.03-.63-.07-.91-.1-.3-.03-.61-.05-.92-.05Z"/>
  </g>
</svg>