<?xml version="1.0" encoding="UTF-8"?>
<svg id="Layer_2" data-name="Layer 2" xmlns="http://www.w3.org/2000/svg" xmlns:xlink="http://www.w3.org/1999/xlink" viewBox="0 0 42 42">
  <defs>
    <style>
      .cls-1 {
        fill: url(#linear-gradient);
      }
    </style>
    <linearGradient id="linear-gradient" x1="21" y1="-86" x2="21" y2="-128" gradientTransform="translate(0 -86) scale(1 -1)" gradientUnits="userSpaceOnUse">
      <stop offset="0" stop-color="#80bea7"/>
      <stop offset="1" stop-color="#1f615e"/>
    </linearGradient>
  </defs>
  <g id="Layer_1-2" data-name="Layer 1">
    <path class="cls-1" d="M26.8,0c5.32,0,7.98,0,10.01,1.04,1.79.91,3.24,2.36,4.15,4.15,1.04,2.03,1.04,4.69,1.04,10.01v11.6c0,5.32,0,7.98-1.04,10.01-.91,1.79-2.36,3.24-4.15,4.15-2.03,1.04-4.69,1.04-10.01,1.04h-11.6c-5.32,0-7.98,0-10.01-1.04-1.79-.91-3.24-2.36-4.15-4.15-1.04-2.03-1.04-4.69-1.04-10.01v-11.6c0-5.32,0-7.98,1.04-10.01C1.95,3.4,3.4,1.95,5.19,1.04,7.22,0,9.88,0,15.2,0h11.6ZM16.2,5c-3.43,0-6.2,2.78-6.2,6.2,0,2.17,1.11,4.08,2.8,5.19-1.69,1.11-2.8,3.02-2.8,5.19s1.11,4.08,2.8,5.19c-1.69,1.11-2.8,3.02-2.8,5.19,0,3.43,2.81,6.2,6.23,6.2s6.29-2.79,6.29-6.26v-5.73c1.1,1,2.57,1.61,4.17,1.61h.11c3.43,0,6.2-2.78,6.2-6.2,0-2.17-1.11-4.08-2.8-5.19,1.69-1.11,2.8-3.02,2.8-5.19,0-3.42-2.78-6.2-6.2-6.2h-10.6ZM20.49,31.89c0,2.33-1.92,4.23-4.26,4.23s-4.2-1.88-4.2-4.17,1.87-4.17,4.17-4.17h4.29v4.12ZM20.49,17.4v8.34h-4.29c-2.31,0-4.17-1.87-4.17-4.17s1.87-4.17,4.17-4.17h4.29ZM26.81,17.4c2.3,0,4.17,1.87,4.17,4.17s-1.87,4.17-4.17,4.17h-.11c-2.3,0-4.17-1.87-4.17-4.17s1.87-4.17,4.17-4.17h.11ZM20.49,15.37h-4.29c-2.31,0-4.17-1.87-4.17-4.17s1.87-4.17,4.17-4.17h4.29v8.34ZM26.81,7.03c2.3,0,4.17,1.87,4.17,4.17s-1.87,4.17-4.17,4.17h-4.29V7.03h4.29Z"/>
  </g>
</svg>