<?xml version="1.0" encoding="UTF-8"?>
<svg id="Layer_2" data-name="Layer 2" xmlns="http://www.w3.org/2000/svg" xmlns:xlink="http://www.w3.org/1999/xlink" viewBox="0 0 42 42">
  <defs>
    <style>
      .cls-1 {
        fill: url(#linear-gradient);
      }
    </style>
    <linearGradient id="linear-gradient" x1="21" y1="-86" x2="21" y2="-128" gradientTransform="translate(0 -86) scale(1 -1)" gradientUnits="userSpaceOnUse">
      <stop offset="0" stop-color="#80bea7"/>
      <stop offset="1" stop-color="#1f615e"/>
    </linearGradient>
  </defs>
  <g id="Layer_1-2" data-name="Layer 1">
    <path class="cls-1" d="M26.8,0c5.32,0,7.98,0,10.01,1.04,1.79.91,3.24,2.36,4.15,4.15,1.04,2.03,1.04,4.69,1.04,10.01v11.6c0,5.32,0,7.98-1.04,10.01-.91,1.79-2.36,3.24-4.15,4.15-2.03,1.04-4.69,1.04-10.01,1.04h-11.6c-5.32,0-7.98,0-10.01-1.04-1.79-.91-3.24-2.36-4.15-4.15-1.04-2.03-1.04-4.69-1.04-10.01v-11.6c0-5.32,0-7.98,1.04-10.01C1.95,3.4,3.4,1.95,5.19,1.04,7.22,0,9.88,0,15.2,0h11.6ZM29.6,16.36c-2.62,0-5.53,1.38-5.52,4.45-.02,1.35.66,2.58,1.73,3.35.77.55,1.61.98,2.49,1.3.61.23,2.14.65,2.14,1.56,0,.95-1.27,1.01-1.92,1.01-1.46-.02-2.96-.39-4.23-1.16-.11-.09-.24.02-.23.14v3.12c0,.14.07.28.2.35,1.29.61,2.76.82,4.17.81,2.71,0,5.87-1.3,5.81-4.57.05-2.62-2.36-3.92-4.48-4.65-.61-.25-1.97-.67-2-1.53,0-1.55,2.96-.93,3.7-.75.58.12,1.15.33,1.68.61.14.07.34,0,.33-.17v-2.92c0-.15-.03-.33-.2-.38-1.14-.5-2.46-.59-3.68-.58ZM14.6,12c-1.81,0-3.62.11-5.43.11-.12,0-.18.07-.18.2v18.47c0,.16.07.23.21.23h3.32c.14,0,.29-.08.26-.25v-5.76c3.04,0,6.43.04,8.38-2.76.7-1.01,1.05-2.28,1.05-3.82,0-.81-.14-1.58-.4-2.33-1.11-3.07-4.29-4.07-7.23-4.07ZM12.82,15.57c1.24-.18,2.83-.15,3.97.32,1.05.41,1.66,1.49,1.63,2.62,0,1.33-.7,2.43-1.98,2.8-1.16.39-2.42.38-3.62.29v-6.03Z"/>
  </g>
</svg>